PathFileType  4	(X/Y/Z) C:\Users\antoi\Documents\MyRepositories\mobilecap\ResultsAnalysis
DataRate	CameraRate	NumFrames	NumMarkers	Units	OrigDataRate	OrigDataStartFrame	OrigNumFrames
100.0	100.0	4	51	mm	100.0	149	170
Frame#	Time	r_knee			r_shank_antsup			r_ankle			r_calc			r_5meta			r_toe			L_knee			L_shank_antsup			L_ankle			L_calc			L_5meta			L_toe			r_sh2			r_sh3			r_sh4			L_sh2			L_sh3			r_thigh1			r_thigh2			r_thigh3			r_thigh4			r_thigh5			L_thigh1			L_thigh2			L_thigh3			L_thigh4			r.ASIS			r.PSIS			L.ASIS			L.PSIS			C7			R_Shoulder			L_Shoulder			R_Sternum			L_Sternum			R_humerus			R_elbow_med			R_elbow_lat			R_forearm			R_wrist_radius			R_wrist_ulna			L_humerus			L_elbow_med			L_elbow_lat			L_forearm			L_wrist_radius			L_wrist_ulna			R_HJC			L_HJC			R_HJC_reg			L_HJC_reg			
		X1	Y1	Z1	X2	Y2	Z2	X3	Y3	Z3	X4	Y4	Z4	X5	Y5	Z5	X6	Y6	Z6	X7	Y7	Z7	X8	Y8	Z8	X9	Y9	Z9	X10	Y10	Z10	X11	Y11	Z11	X12	Y12	Z12	X13	Y13	Z13	X14	Y14	Z14	X15	Y15	Z15	X16	Y16	Z16	X17	Y17	Z17	X18	Y18	Z18	X19	Y19	Z19	X20	Y20	Z20	X21	Y21	Z21	X22	Y22	Z22	X23	Y23	Z23	X24	Y24	Z24	X25	Y25	Z25	X26	Y26	Z26	X27	Y27	Z27	X28	Y28	Z28	X29	Y29	Z29	X30	Y30	Z30	X31	Y31	Z31	X32	Y32	Z32	X33	Y33	Z33	X34	Y34	Z34	X35	Y35	Z35	X36	Y36	Z36	X37	Y37	Z37	X38	Y38	Z38	X39	Y39	Z39	X40	Y40	Z40	X41	Y41	Z41	X42	Y42	Z42	X43	Y43	Z43	X44	Y44	Z44	X45	Y45	Z45	X46	Y46	Z46	X47	Y47	Z47	X48	Y48	Z48	X49	Y49	Z49	X50	Y50	Z50	X51	Y51	Z51	

149	1.48000000	1379.27472	485.37976	-51.92252	1430.27652	451.39101	-62.30279	1437.84763	89.18939	-92.93176	1390.77121	55.47121	-144.89163	1590.43461	49.40627	-51.33159	1612.95012	82.96931	-104.15896	1080.03330	473.54750	-370.68155	1059.24951	385.25493	-385.84614	834.23507	144.43537	-349.96441	757.70958	136.67893	-302.94780	917.90685	38.31705	-363.92944	961.26557	46.39975	-309.85976	1453.75543	340.18480	-76.75451	1365.45481	430.87515	-25.14031	1388.13678	317.12712	-26.97313	991.52491	443.59158	-396.50374	919.63044	344.83976	-395.43293	1350.29962	783.93421	-109.42236	1396.91927	682.53692	-103.72066	1392.88385	659.42119	-39.79304	1295.84007	762.28113	-12.43595	1343.80312	659.73523	-10.72559	1234.12912	763.55846	-380.78841	1190.23961	630.39006	-386.65122	1125.26017	796.83117	-382.33047	1081.64719	668.27102	-365.94615	1306.19847	922.16750	-83.42229	1115.84747	965.13570	-153.56940	1306.10594	901.31917	-321.82935	1115.20456	964.00181	-252.05588	1165.62600	1426.54820	-226.45106	1222.52924	1389.81038	-56.69487	1234.85538	1356.69407	-384.12501	1270.86787	1326.79371	-199.84108	1274.86216	1321.72994	-237.98388	1203.49985	1152.76155	34.28947	1136.85310	1068.45582	8.65140	1171.56912	1067.11358	59.24130	1226.21600	933.28465	68.36939	1257.45682	833.03584	49.36133	1227.50475	830.98234	83.52509	1237.26584	1120.07114	-455.35748	1184.15003	1019.20748	-413.22687	1213.03508	1020.84839	-464.97667	1283.94566	896.03985	-474.81901	1328.69808	799.52425	-449.07671	1294.75688	786.65543	-473.85108	1226.45405	843.84267	-111.96425	1211.10157	841.55976	-302.00454	1232.23549	845.04676	-115.09598	1231.20174	843.23133	-273.02919	
150	1.49000000	1391.97765	485.84550	-51.82406	1442.39494	450.78243	-62.65061	1440.94470	89.24623	-92.27212	1392.20744	56.52451	-144.88267	1592.38466	44.48927	-52.05509	1616.09522	77.03412	-105.06804	1092.98913	471.42618	-369.74535	1070.43540	383.69821	-385.78119	838.95588	148.69908	-351.39575	762.54313	143.50095	-304.46825	919.49637	38.89097	-364.17161	962.74837	46.02747	-310.20327	1463.65504	339.22403	-77.29991	1377.77101	431.46250	-24.68934	1398.34391	317.36705	-26.55608	1004.17431	443.92680	-395.58703	929.73469	347.42178	-395.31609	1362.78508	784.70231	-109.69835	1409.42846	683.32160	-104.24584	1406.12089	660.44024	-40.17168	1309.46518	763.35796	-12.00178	1357.34490	660.83130	-10.68164	1245.63274	761.76509	-379.18836	1202.37707	628.39461	-385.47667	1136.65371	794.63010	-380.80933	1093.76997	665.94764	-364.26215	1318.26376	922.45809	-82.46529	1127.39721	964.66840	-153.05290	1317.53050	900.12336	-320.34037	1126.67801	962.81686	-251.61405	1176.93734	1426.11649	-220.77533	1232.60713	1387.11113	-51.08966	1247.13659	1358.16740	-379.10900	1281.95194	1325.97777	-194.72218	1285.85488	1321.37833	-232.89667	1214.26804	1149.04014	37.31473	1148.37410	1064.60656	10.42852	1182.42260	1063.11175	61.35568	1237.21575	929.34911	70.46412	1268.67458	829.16854	51.36624	1238.34534	826.97529	85.18316	1247.00967	1121.67532	-451.82859	1192.64965	1021.54031	-409.65149	1221.38464	1023.00695	-461.76724	1289.07284	896.65930	-473.22734	1331.27297	798.50292	-448.71382	1296.89216	786.95427	-473.69064	1238.28126	843.88762	-110.44542	1222.89153	840.21638	-300.45808	1244.15617	845.22686	-113.46325	1243.00212	842.27052	-271.11571	
151	1.50000000	1404.63246	486.68986	-51.65575	1454.29156	450.48241	-62.96243	1443.56342	89.43159	-91.53573	1393.28996	57.13889	-144.75616	1593.81905	40.71289	-52.59586	1618.54073	72.21602	-105.88658	1107.10546	468.99147	-368.84844	1082.81450	381.85570	-385.70970	844.60055	153.40216	-352.85653	768.30133	151.17305	-306.07403	921.25598	39.69553	-364.41425	964.46506	45.73751	-310.54142	1473.11935	338.57160	-77.73391	1389.90347	432.48038	-24.04997	1408.19447	318.06349	-25.88903	1018.17399	444.04903	-394.75720	941.10651	350.05591	-395.33834	1375.09519	785.87735	-110.14625	1421.85251	684.59325	-104.84894	1419.45005	662.05525	-40.61338	1323.16195	764.98807	-11.61258	1370.99714	662.47760	-10.59506	1257.19110	760.09551	-377.46634	1215.07236	626.32880	-384.23784	1147.96648	792.20685	-379.01910	1106.29981	663.21050	-362.40354	1330.13615	923.31698	-81.54816	1138.65970	964.42297	-152.62503	1328.88124	899.36900	-318.71541	1137.82211	961.75378	-251.23793	1188.46207	1425.94770	-215.11458	1242.76569	1384.63243	-45.55722	1259.70263	1359.88026	-374.01621	1293.06872	1325.30425	-189.60246	1297.00470	1321.18147	-227.77929	1225.20366	1145.60077	40.24935	1160.02142	1061.05062	12.15847	1193.38213	1059.42213	63.42459	1248.41077	925.74020	72.54095	1280.07024	825.61988	53.38860	1249.37445	823.29215	86.85454	1256.90720	1123.61142	-448.28872	1201.16615	1024.35893	-406.11636	1229.87115	1025.55708	-458.55867	1294.29774	897.74842	-471.58399	1333.89821	798.04934	-448.21378	1299.09589	787.82892	-473.38331	1250.02197	844.37032	-108.87653	1234.67063	839.15248	-298.85246	1256.06274	845.94806	-111.73689	1254.72371	841.69818	-269.00005	
152	1.51000000	1416.98335	487.75042	-51.45303	1465.77167	450.36048	-63.27942	1445.74283	89.57181	-90.95201	1394.00655	57.38772	-144.61262	1594.79231	37.99892	-53.00503	1620.31614	68.43556	-106.68124	1122.40422	466.22785	-368.01439	1096.47522	379.70590	-385.56599	851.32657	158.58216	-354.25811	775.17031	159.75526	-307.67651	923.22879	40.86237	-364.68258	966.44511	45.60622	-310.85968	1481.96925	338.08521	-78.11387	1401.66007	433.76587	-23.31008	1417.50731	319.05132	-25.10925	1033.61036	443.88978	-394.08634	953.86241	352.61694	-395.49321	1387.18973	787.33826	-110.65265	1434.09080	686.19771	-105.43981	1432.69995	664.06779	-41.04691	1336.78210	767.00784	-11.22366	1384.57024	664.49115	-10.45937	1268.73300	758.56656	-375.68322	1228.26712	624.23006	-383.00356	1159.13219	789.53502	-376.94968	1119.19414	660.02629	-360.37801	1341.81205	924.68511	-80.69417	1149.64815	964.38051	-152.24925	1339.98419	899.04016	-317.04775	1148.60145	960.81162	-250.88843	1200.17174	1426.02991	-209.46829	1253.00354	1382.37481	-40.12832	1272.54100	1361.85684	-368.83408	1304.20639	1324.76310	-184.50220	1308.29732	1321.11737	-222.66010	1236.24884	1142.47112	43.10086	1171.72592	1057.82064	13.84580	1204.39581	1056.06892	65.45261	1259.75135	922.49429	74.60049	1291.64488	822.44027	55.42385	1260.57142	819.96589	88.52143	1266.97123	1125.92662	-444.76356	1209.70068	1027.67704	-402.73432	1238.48764	1028.54219	-455.40900	1299.65548	899.36670	-469.90475	1336.61377	798.22464	-447.55586	1301.46079	789.34230	-472.94455	1261.65192	845.24855	-107.29404	1246.31287	838.36171	-297.21645	1267.90781	847.15115	-109.93247	1266.24297	841.48563	-266.73647	
